<svg width="680" height="583" viewBox="0 0 680 583" version="1.1" xmlns="http://www.w3.org/2000/svg"><title>maggi_logo</title><g id="-assets" stroke="none" stroke-width="1" fill="none" fill-rule="evenodd"><g id="maggi_logo"><g id="icon"><path d="M599.995 239.717c-2.7-2.742-6.333-4.266-10.22-4.266-3.84 0-7.45 1.49-10.16 4.182-2.762 2.746-4.28 6.37-4.294 10.253-.01 3.89 1.51 7.555 4.262 10.293 2.728 2.73 6.337 4.214 10.17 4.214l.104-.012c3.834.008 7.44-1.5 10.155-4.222 2.73-2.734 4.217-6.364 4.217-10.196.008-3.865-1.475-7.5-4.232-10.245zm-10.225-1.914l-.004-.572.024.57c6.637.035 12.044 5.49 12.036 12.182-.008 6.635-5.387 12.033-12.052 12.033-6.653-.008-12.064-5.443-12.08-12.102.016-6.684 5.43-12.11 12.076-12.11zm6.5 17.8c-.11-.053-.19-.186-.265-.503-.07-.158-.094-.45-.115-.925l-.078-1.747c-.037-.885-.18-1.534-.55-2.004-.15-.2-.35-.373-.548-.51.312-.252.59-.528.787-.86.415-.633.624-1.368.656-2.21.01-1.745-.786-2.974-2.318-3.603-.63-.29-1.467-.457-2.823-.546l-6.907.02-.004 14.22h3.015l-.017-5.602 3.744.01c.824 0 1.176.108 1.31.18.452.175.698.618.714 1.25l.152 2.434c.013.332.017.555.017.67l-.01.112.017.08c.03.127.082.25.164.484l.12.38 3.248.005.058-1.192-.365-.142zm-3.166-8.578c-.024.868-.307 1.172-.557 1.34-.36.238-.97.372-1.753.368l-3.707-.016.05-3.35 3.886.016c.652.004 1.086.085 1.344.21.307.147.713.48.737 1.432zM339.4 332.993c28.944-50.294 102.085-62.67 167.274-78.29 62.33-14.955 142.37-39.334 142.516-101.658.16-99.448-195.718-132.16-309.206-133.032C226.567 19.24 30.572 52.387 30.4 151.848c-.137 62.295 79.716 87.004 142.05 102.22 65.096 15.88 138.237 28.502 166.95 78.925z" id="Fill-1" fill="#DB322A"/><path d="M539.67 178.55l.118-65.494 23.736.083-.155 65.478-23.7-.067zm23.84-70.483l.035-8.743-23.724-.004-.007 8.732 23.698.015zm-413.478 69.767l.13-49.44 26.297 49.456 17.392.06 25.084-50.638-.11 50.708h23.256l.12-74.964-33.68-.063-23.193 46.37-24.942-46.453-33.498-.04-.138 74.937 23.28.067zm285.41-64.955l-.127 49.24c-.067 23.334-23.87 28.153-42.974 28.138-45.397-.123-45.59-17.554-45.614-22.822-.01-1.628.012-2.34.012-2.34l24.126.034s-.042 1.076.008 2.37c.243 7.773 10.816 10.15 20.812 10.15 19.983.042 20.272-10.924 20.23-13.51.042-1.066.037-6.02.033-6.662 0 0-8.083 4.59-24.004 4.55-35.966-.062-41.652-10.275-41.602-25.035.018-16.392 4.82-26.47 40.16-26.416 17.63.048 25.33 6.423 25.33 6.423l.03-4.157 23.58.036zm-23.45 24.574c.06-7.648-3.798-13.495-22.137-13.543-12.757-.046-19.033 2.208-19.08 12.977-.016 10.725 8.662 12.427 19.633 12.478 13.3.012 21.598-1.72 21.585-11.91zm119.013-24.374l-.117 49.186c-.05 23.354-23.887 28.192-42.995 28.165-45.385-.098-45.59-17.55-45.59-22.81-.02-1.615.012-2.363.012-2.363l24.155.04s-.084 1.075.017 2.375c.21 7.762 10.728 10.178 20.74 10.182 20.013.027 20.272-10.94 20.29-13.54-.014-1.075.032-6.032.032-6.654 0 0-8.093 4.59-24 4.56-36.038-.045-41.703-10.3-41.645-25.034.02-16.387 4.78-26.506 40.163-26.423 17.64.01 25.352 6.434 25.352 6.434l.025-4.18 23.56.063zM507.6 137.64c.04-7.637-3.867-13.543-22.197-13.567-12.707-.028-19.063 2.23-19.067 12.98-.03 10.744 8.674 12.466 19.632 12.462 13.29.032 21.61-1.71 21.632-11.876zm-167.267-.552l-.063 41.085-24.147-.06-.004-3.904c-10.52 4.333-17.708 5.436-28.83 5.373-11.104-.004-38.18-1.765-38.154-22.68.017-4.09-1.644-23.236 42.958-23.125 16.038.008 24.088 4.176 24.088 4.176s.02-2.734.008-3.814c.03-2.782-.958-11.367-23.263-11.407-8.226-.016-14.975 1.608-17.347 6.427-.502 1.115-.758 2.057-.758 2.057l-23.94-.06s-.005-.898.02-2.04c.004-20.143 42.12-18.626 45.816-18.646 23.28.048 43.673 5.545 43.615 26.618zM316.2 156.103c.02-8.913-9.943-9.673-20.917-9.68-11.013-.025-20.502 1.008-20.553 9.818-.016 5.6 3.9 10.486 18.29 10.51 14.86.047 23.166-1.352 23.18-10.647z" id="Fill-377" fill="#FFF101"/></g><g id="tagline-copy"><path d="M385.06 382.807c1.364-.858 5.04-2.482 5.87-4.114.155-.683-.023-2.128.78-2.33 1.308-.322 4.754 3.02 4.803 3.204.272 1.806-4.7 4.792-5.696 5.038-.56.14-.235-.393-.934-.282-.556.14.005.517-.572.592-.494.127-1.923.74-2.48.878-4.425.782-4.847.69-5.874-.215-.24-.913 3.142-2.144 4.104-2.77m196.574 80.428c1.027.905 1.45.993 5.874.214.556-.14 1.985-.75 2.48-.877.577-.08.013-.453.573-.592.7-.11.38.422.935.283.995-.246 5.968-3.232 5.696-5.04-.048-.18-3.495-3.525-4.798-3.203-.808.203-.63 1.648-.783 2.33-.834 1.63-4.508 3.257-5.872 4.114-.962.628-4.344 1.86-4.104 2.772M547.73 378.65c-.04 0-.78.114-2.21.345-1.432.23-3 .782-4.708 1.66-.812.46-1.644.917-2.5 1.377-.086.127-.127.314-.127.564 0 .628.288 1.307.865 2.037.576.73 1.206 1.096 1.888 1.096.515 0 1.794-.75 3.844-2.256 2.05-1.505 3.42-2.696 4.1-3.57-.425-.838-.807-1.255-1.152-1.255m-392.35 50.256c.255-.04.51.083.763.377.41.417.66.627.816.667h.506c.41 0 1.43-.417 2.956-1.25.714-.71 1.07-1.506 1.07-2.383 0-.29-.153-.874-.56-1.668-.458-.505-.815-.755-1.07-.755h-1.12c-.56.377-1.426.877-2.547 1.46-.714 1.172-1.067 2.09-1.067 2.717 0 .294.1.544.25.834m257.472 26.68c-.134-.264-.374-.458-.658-.538-.028-.01-.057-.03-.093-.05-.115-.07-.24-.12-.375-.14l-.434-.072c-.056-.012-.117-.015-.174-.015-.51 0-1.42.175-1.99 1.283-.096.107-.165.214-.214.322-.065.075-.19.234-.43.59l-.037.057c-.195.103-.353.222-.467.365l-1.4.965c-.05.008-.094.02-.14.032-.246.067-.506.206-.79.425-.337.078-.715.185-1.12.32-.32.104-.55.127-.683.127-.666 0-1.18-.837-1.498-1.54l-.613-1.374c-.09-.207-.248-.373-.438-.485-.138-.17-.32-.293-.532-.357-.252-.166-.577-.193-.873-.114-.015 0-.032 0-.052.004-.154.016-.3.063-.43.14-.085.027-.175.062-.272.106-.325.084-.613.314-.76.62-.024.055-.068.123-.125.206-.08.13-.13.278-.15.43l-.012.098c-.048.17-1.112.354-1.07.528l-.93.524v.223c0 .254 1.132-.24 1.52.59.29.573 1.386.39 1.548.39h.118l.02.763c.037.05.09.476.134.52.024.024.053.234.077.254.02.024.04.143.065.163.073.103.16.238.256.306.187.23.447.465.775.656l.878.504c.045.024.09.048.138.068.21.08.443.123.69.107.122.032.264.07.43.11.28.076.573.088.82.088 1.093 0 2.404-.317 4.09-1.008.243-.123.584-.33 1.034-.612.268-.055.524-.202.678-.405.305-.167.488-.29.565-.35.308-.24.824-.65 1.522-1.238.232-.17.57-.504.82-.77.094-.096.167-.207.215-.33.005 0 .01-.004.017-.012.073-.067.134-.143.186-.226.333-.532.47-.917.47-1.28 0-.336-.137-.638-.303-.967m230.197-8.25v-1.49h-8.782v1.49h3.524v13.03h1.7v-13.03h3.557m16.677 13.03l-1.88-14.52h-2.033l-3.133 10.43c-.074.2-.134.405-.19.612-.054.202-.095.393-.12.572-.052.2-.088.388-.1.555h-.04c-.034-.167-.078-.354-.13-.556-.042-.18-.082-.37-.13-.573-.046-.207-.098-.413-.15-.612l-3.164-10.43h-2.034l-1.884 14.52h1.603l1.35-10.887c.025-.203.054-.405.07-.612.02-.206.04-.397.053-.572.012-.202.024-.397.04-.58h.017c.028.183.073.378.134.58.04.175.085.366.138.572.053.207.113.41.178.612l3.29 10.887h1.25l3.3-10.887c.057-.203.11-.405.162-.612.053-.206.102-.397.138-.572.06-.202.106-.397.134-.58h.037c0 .183.017.378.04.58.018.175.034.366.054.572.02.207.04.41.07.612l1.35 10.887h1.58m-552.21-60.286c-.552 1.138-1.372 3.82-1.92 5.228-.208-.603-.89-1.878-1.645-2.95l-1.438-1.942c.89 0 1.778 0 5.002-.337m116.95 4.94c-.14-.073-.288-.117-.425-.117-.41.405-5.344 5.83-6.03 6.37-1.027.8-.755.8-1.782 1.405-.75.468-1.437.802-2.054 1.14-1.096.535-2.262 1.07-3.013 1.07-1.712 0-1.78-3.485-1.78-4.287 0-5.292 4.59-17.156 4.59-17.62 0-1.81-3.292-2.617-4.522-2.617-2.33 0-4.112 2.55-4.18 2.616-.55.464-1.167 1.004-1.646 1.337l-.755.604-7.328 6.298 2.6-7.774c-.41-.735-2.74-1.604-3.01-1.604-.687 0-2.74-.338-2.948.802-.75 2.388-1.9 6.04-3.023 9.625-.102.045-.213.16-.332.36-.548.938-6.508 7.236-10.344 10.253-1.437 1.072-4.178 2.41-4.795 2.41-.208.068-.342-.067-.41-.4l-.14-.406-.068-2.41c0-4.558 4.04-11.527 5.688-14.608.272-.536.617-.802 1.16-1.54.208-.2.208-.47.14-.937l-.14-.605c-.75-1.005-1.915-.74-2.942-1.275.203-1.004-.138-2.144-.41-2.747-.415-.4-3.906-2.545-4.592-2.545-2.533 0-3.496 1.405-4.523 2.076-.75.47-1.85 1.477-2.602 1.946.208.266-.068.734-.344 1.004-.203 0 .073-.27-.548-.27-.568 0-5.137 5.024-7.92 8.4-.072.028-.147.064-.224.11-3.358 3.82-16.102 15.28-20.624 15.55-2.33.197-2.875-3.218-2.875-5.028 0-3.888 1.576-8.978 2.327-10.79 1.644-4.354 3.085-8.107 5.825-11.86.752-.936 4.588-3.35 6.44-4.756 1.303-1.072 2.054-1.405 3.49-2.815 1.442-2.212 1.714-3.014 1.714-4.288 0-1.807-4.107-5.496-6.576-5.496-3.22 0-8.152 12.132-9.317 13.875-.89 1.203-12.67 6.095-17.47 7.167-.755.202-2.33.738-2.602.468l9.04-24.19c0-.332-.34-2.278-1.23-2.278-.754 0 .135.27-.616.27-.756 0-1.235-1.405-1.99-1.405-.75 0-.75.067-.958.333-.34 2.68-2.262 8.176-3.15 10.653-2.193 5.83-5.96 15.68-7.264 18.36-.34.874-9.658 1.474-10.206 1.474-.617 0-5.21-.667-6.098.202 1.644 6.23 4.453 2.342 7.742 7.972 1.23 2.077 1.23.74 1.575 7.775.208 2.144 4.386 3.617 4.796 3.216 1.85-4.022 2.878-7.842 4.246-11.86.548-1.676 1.576-4.29 2.06-4.626 1.846-1.072 5.134-.937 6.23-2.343l.55.536c4.25-1.274 10.21-3.887 10.62-4.09l1.233-.734.548-.405c-1.372 2.415-6.715 14.676-6.715 17.758 0 3.752 5.205 11.927 10.755 11.927 3.906 0 8.087-4.62 9.593-5.76 1.137-.894 2.353-2.1 3.543-3.465-.008.22-.003.438.013.65 0 1.607 4.384 5.292 5.757 5.292 3.767 0 9.248-4.956 11.647-6.9.203 1.206.613 5.292 3.423 6.9.548.337 0-.266.548-.266.617 0 1.165 1.203 1.99 1.743 0-.204 0-.27.064-.34l.138-.134c.207.203.138.473.138.74l.548-.537c.276.27-.07.27.548.27.548 0 .41-.74 1.027-.74.62 0 .14.266.757.266s.89-.87 1.368-.802c0-.266-.34-.738-.07-1.004.277 0 .208.266.825.266 1.22 0 5.648-5.017 7.378-7.15-.494 1.623-.805 2.69-.805 2.794 0 1.41 2.943 3.085 4.246 3.085.478 0 .823-.067 1.026-.27 2.4-3.415 9.25-13.067 15.075-18.76.273.265.07.805.07 1.07-.414 1.676-.755 3.15-1.027 4.555-.484 2.347-.963 4.828-.963 5.563-.203 1.81 0 4.824.894 6.1 1.16 1.675 4.453 4.017 7.328 4.017 2.465 0 7.98-4.718 10.88-8.762.816 1.114 2.236 2.13 2.833 3.203h1.368c2.4-3.282 4.864-6.967 7.263-10.12-1.165 0 0-.266 0-1.004.207 0-.207.27.41.27.41 0 4.66-4.892 6.167-5.226v.6c-1.303 4.292-2.948 8.648-2.948 13.135 0 2.68 1.645 9.918 7.402 9.918 2.943 0 5-1.41 7.742-4.96.137-.202.41-.333.82-.535l.616-.203c1.575-1.004 3.016-3.35 4.177-5.558.686-1.275 1.373-2.68 1.99-4.22 0-.74-.414-1.01-.89-1.208-2.196 1.472-6.645 6.967-10.69 10.048-1.92 1.005-3.633 2.212-4.932 2.68-.75-1.675-1.164-3.148-1.164-4.423 0-.536.89-6.698 1.99-10.117 1.092-3.42 3.63-9.514 3.63-9.982 0-1.342-3.22-4.157-4.386-4.157-1.985 0-10.482 8.242-11.03 8.778-.07-.068-.138-.2-.138-.266 0-.068 0-.068.07-.135l9.864-29.15c.207-1.805-3.495-3.35-3.974-3.35-2.193 0-1.162 4.157-1.162 4.824-.414.406-2.33 3.686-2.33 5.096 0 .603.48.536.48.802-2.47 1.072-4.044 9.05-5.896 14.14-1.477 4.616-4.214 11.858-6.09 16.063m-50.844-10.234c0 1.946-4.933 8.577-5.48 9.113-2.262 3.016-5.69 5.895-7.812 7.436-1.027.738-2.26 1.608-3.836 2.616h-1.166c-.07 0-.07 0-.138-.067-.065-.068-.134-.27-.134-.536 0-5.902 14.73-20.307 17.742-20.307.552.603.824 1.207.824 1.743m157.493-13.266c0-5.694-6.098-12.063-13.02-14.207-3.422-1.072-16.235-4.824-28.224-.734-2.262.733-7.467 3.417-8.567 5.827-.682 1.54-.48 4.757-.48 5.226 0 3.685 2.81 8.71 4.386 9.382 2.19-2.28-1.576-8.44 1.51-12.332.82-1.068 1.712-1.54 2.74-2.01 1.985-.87 5.204-2.21 5.82-2.21.277 0 .41.066.41.134v.067c-2.19 8.712-9.178 24.86-13.015 33.973-.755 0-1.575.937-2.33 1.406 0 2.28-.34 6.567-.34 7.17 0 1.61.202 6.568 3.49 6.568.553 0 1.92-.67 1.92-1.138 0-1.81-.068-3.753.41-5.027.894-3.35 4.592-14.473 6.168-17.086 1.437 2.68 5.342 4.22 8.018 4.22.614 0 .752-.266 1.3-.266.617 0 1.234.536 1.85.536 5 0 27.953-7.576 27.953-19.5m-5.55-1.81c0 10.653-20.485 16.954-25.828 16.954-.755 0-4.864-.27-4.864-1.81 0-.672 2.33-2.816 2.33-3.483 0-.805-1.78-.535-2.808-.336.203-1.14.75-2.28.75-2.343 0-.602.825-2.747 1.373-4.287.203-.74 4.657-9.45 4.657-11.392 0-1.206-1.916-2.413-2.602-2.95 2.533-.87 6.646-.87 9.455-.87 3.496 0 17.538 2.812 17.538 10.52m72.924 30.977c-.132.224-.22.36-.24.383-.276.266-.824.067-1.373.67-.34 1.073-3.288 5.627-6.235 6.5-1.37.47-1.577.47-2.194.47-2.395 0-6.232-3.15-6.78-5.766-.276-1.406-.617-2.748-.686-4.352-2.533 3.347-6.85 7.234-9.045 9.045-4.11 1.54-7.604-.405-8.562-1.878-.73-1.043-1.273-3.1-1.302-3.767-.855 1.343-1.8 2.524-2.802 3.162l-.62.203c-.41.202-.683.333-.82.536-2.74 3.55-4.796 4.96-7.743 4.96-5.753 0-7.397-7.24-7.397-9.92 0-4.486 1.644-8.842 2.943-13.134v-.6c-1.505.334-5.752 5.226-6.166 5.226-.613 0-.203-.27-.41-.27 0 .738-1.165 1.004 0 1.004-2.395 3.153-4.863 6.838-7.26 10.12h-1.37c-.894-1.607-3.634-3.084-3.427-4.958 1.027-.67 5.756-12.73 7.88-19.365 1.847-5.09 3.422-13.067 5.89-14.14 0-.265-.478-.198-.478-.8 0-1.41 1.92-4.69 2.33-5.096 0-.666-1.028-4.823 1.164-4.823.48 0 4.178 1.545 3.975 3.35l-9.87 29.15c-.066.067-.066.067-.066.135 0 .067.065.198.134.266.548-.536 9.045-8.78 11.03-8.78 1.166 0 4.385 2.816 4.385 4.158 0 .468-2.533 6.563-3.63 9.982-1.095 3.42-1.984 9.58-1.984 10.117 0 1.275.41 2.748 1.16 4.424 1.303-.47 3.016-1.677 4.932-2.682 3.46-2.635 7.218-7.037 9.605-9.177 1.278-3.782 3.173-7.64 4.507-10.456.203-.2.617-.064.82-.334-.07-.87.41-2.28.756-2.28.617 0 .138.27.686.27 0-1.004.272-2.21.48-3.485.27 0 0-.266.75-.266 1.372 0 4.32 1.674 4.32 2.814 0 .135-8.908 14.135-8.908 21.64 0 .536 0 1.608.613 1.608 3.91 0 19.188-20.437 20.008-23.987.207-.603 1.027-.87 1.644-.87.825 0 3.634 2.208 3.634 2.478 0 .536-.483 1.005-.686 1.473-2.538 5.027-5.89 11.928-5.89 17.56 0 .467.41 3.012 1.164 3.346 2.188-.735 7.194-5.83 8.083-6.7.48.27.82.27 1.576.27.617 0 .07-.2.276-.404-.05-.96.604-2.058 1.508-3.098 2.517-7.987 12.053-17.807 17.665-17.807 4.385 0 6.922 3.08 6.922 6.5 0 1.406-.345 4.96-1.99 4.96-1.436 0-3.288-2.014-3.288-3.018 0-.47.894-2.748.894-3.284 0-.468-.137-1.405-.617-1.94l-1.027.067c-1.51.198-5.756 4.622-6.03 4.892-3.835 3.818-7.054 9.11-7.4 13.602-.207 1.27.276 6.833 2.88 6.833 5.07-.536 10.62-3.82 11.098-4.153 2.193-1.076 3.013-1.81 5.753-3.554.755-.536 3.15-2.41 4.044-3.148.342-.068.687 0 1.028.202l.345.266c0 .203 0 .536-.207 1.005-.824 1.945-7.125 7.373-7.194 7.373-.548 0-.414-.27-.617-.472-.272.472-.686 1.008-.89 1.743-.206 0-.413-.135-.685-.4-.48.467-.548 1.472-1.097 1.472-.617 0-.617-.47-.82-.47 0 1.81-3.292 2.415-4.936 3.284-.34.2-2.055.67-2.603.87-.89.202-1.782.27-2.602.067-.34 0-2.878-.8-4.044-1.607-2.59-1.47-4.24-4.514-4.89-7.216m94.154-4.712c0-.734-.82-1.203-1.165-1.203-4.864 3.752-14.25 10.316-19.252 10.316-6.094 0-12.26-8.104-12.26-14.005 0-11.19 29.526-25.392 29.526-28.004 0-1.947-3.425-3.555-4.314-3.353-4.864 3.415-9.248 6.63-13.154 9.514-6.715 4.96-13.91 10.32-15.208 12.13l.34-1.742 10.276-22.918c0-.604-1.506-3.082-3.288-3.082-.75 0-1.847.068-2.602.604-.756 4.622-4.316 12.396-5.96 16.35-2.74 7.236-12.127 29.55-12.127 30.555 0 2.28 3.012 3.685 4.523 3.685 1.3 0 3.49-7.104 3.905-7.707.82-1.27 1.78-2.81 2.876-3.887 1.85 9.986 10.28 17.022 18.57 17.022 1.026 0 3.698-1.54 3.9-1.54.756 0 .277.265 1.097.265 1.096 0 14.32-10.117 14.32-13m34.856-.143c-2.375 2.305-5.686 6.043-8.757 8.386-1.92 1.005-3.634 2.212-4.933 2.68-.755-1.675-1.165-3.148-1.165-4.423 0-.536.89-6.698 1.985-10.117 1.096-3.42 3.634-9.514 3.634-9.982 0-1.342-3.22-4.157-4.385-4.157-1.99 0-10.484 8.242-11.032 8.778-.07-.068-.138-.2-.138-.266 0-.068 0-.068.07-.135l9.865-29.15c.203-1.805-3.496-3.35-3.975-3.35-2.192 0-1.165 4.157-1.165 4.824-.41.406-2.33 3.686-2.33 5.096 0 .603.48.536.48.802-2.466 1.072-4.04 9.05-5.892 14.14-2.123 6.634-6.85 18.693-7.876 19.364-.207 1.874 2.533 3.35 3.422 4.96h1.37c2.4-3.284 4.865-6.97 7.265-10.122-1.166 0 0-.266 0-1.004.203 0-.208.27.41.27.41 0 4.66-4.892 6.166-5.226v.6c-1.302 4.292-2.946 8.648-2.946 13.135 0 2.68 1.644 9.918 7.4 9.918 2.944 0 5-1.41 7.74-4.96.137-.202.413-.333.823-.535l.617-.203c1.09-.695 2.115-2.034 3.03-3.524 1.094 3.854 4.2 7.726 8.886 7.88 2.26.204 6.646-3.75 6.99-5.09l.545.537c.345-.338 7.95-8.108 7.95-9.315 0-.203-.07-1.81-1.166-1.81-.204 0-13.496 11.125-16.853 10.855-1.714 0-1.507-2.68-1.507-3.685.203-4.086 6.85-16.482 6.78-16.55 0-1.008-2.74-3.216-4.043-3.216-1.96-.21-5.68 9.842-7.268 14.596m-404.045 84.254c-2.17 2.442-4.752 5.077-4.947 5.268l-.548-.536c-.345 1.34-4.726 5.293-6.987 5.09-4.685-.152-7.793-4.023-8.888-7.876-.913 1.49-1.938 2.83-3.028 3.525l-.617.198c-.41.203-.686.338-.824.537-2.74 3.553-4.795 4.96-7.742 4.96-5.753 0-7.397-7.236-7.397-9.92 0-4.487 1.644-8.842 2.947-13.13v-.604c-1.51.333-5.757 5.225-6.167 5.225-.617 0-.207-.266-.41-.266 0 .74-1.165 1.005 0 1.005-2.4 3.148-4.867 6.833-7.263 10.117h-1.372c-.89-1.61-3.63-3.082-3.422-4.96 1.027-.668 5.752-12.73 7.876-19.365 1.85-5.09 3.426-13.064 5.89-14.136 0-.27-.48-.203-.48-.807 0-1.405 1.922-4.69 2.332-5.09 0-.67-1.027-4.825 1.165-4.825.48 0 4.178 1.54 3.975 3.348l-9.866 29.148c-.07.068-.07.068-.07.135s.07.198.135.265c.552-.532 9.045-8.775 11.035-8.775 1.16 0 4.384 2.815 4.384 4.153 0 .47-2.537 6.568-3.633 9.983-1.096 3.418-1.985 9.585-1.985 10.12 0 1.27.41 2.748 1.165 4.42 1.3-.468 3.012-1.672 4.932-2.68 3.072-2.343 6.383-6.082 8.758-8.387 1.586-4.754 5.308-14.802 7.267-14.596 1.303 0 4.043 2.21 4.043 3.216.07.068-6.577 12.464-6.784 16.55 0 1.008-.204 3.688 1.51 3.688 3.29.26 16.138-10.433 16.826-10.843 1.266-4.057 2.654-8.462 3.517-11.202.207-1.14 2.262-.806 2.948-.806.273 0 2.603.87 3.013 1.608l-2.602 7.775 7.33-6.3.754-.605c.48-.333 1.096-.87 1.644-1.338.07-.068 1.85-2.613 4.182-2.613 1.23 0 4.518.802 4.518 2.613 0 .468-4.587 12.33-4.587 17.622 0 .805.07 4.287 1.78 4.287.754 0 1.92-.536 3.015-1.072.617-.334 1.304-.67 2.055-1.14 1.027-.6.755-.6 1.782-1.405.686-.536 5.62-5.964 6.03-6.365.478 0 1.095.536 1.095 1.072 0 3.752-9.317 12.865-12.744 12.865-2.874 0-6.167-2.347-7.328-4.023-.893-1.27-1.096-4.285-.893-6.095 0-.74.48-3.22.958-5.563.276-1.406.617-2.883 1.03-4.56 0-.265.204-.8-.068-1.07-5.826 5.697-12.675 15.346-15.074 18.765-.203.198-.548.266-1.027.266-1.302 0-4.246-1.676-4.246-3.082 0-.124.443-1.616 1.11-3.794M65.012 446.17c0-2.88-2.26-6.23-5.89-6.23-4.867 0-10.348 3.887-11.992 6.77-.276 0-.138-.27-.89-.27-.41 0-8.976 7.64-10.96 10.32-.894 1.14-1.714 2.946-2.33 4.558-3.014.532-3.77 4.888-5.96 6.63-.618 1.542-2.262 3.487-2.74 5.028-.346 1.072-.277 2.478-.757 3.284-.34.734-1.233 1.405-1.505 1.874-1.234 2.68-1.985 7.572-1.985 8.175 0 4.89 3.22 12.193 8.083 14.806 1.23.67 3.906 1.477 4.454 1.477h1.985c9.317 0 22.13-8.644 28.16-15.482 1.436-1.67 2.053-3.683 1.85-4.287-.073-.6-.207-.667-1.03-.6-3.56 3.55-7.743 6.298-10.276 7.704-1.235.873-2.055 1.473-2.534 1.743.272.266.34.4.07.67-.277 0 .133-.27-.618-.27-.617 0-10.758 6.703-17.266 6.703-6.098 0-7.332-6.432-7.332-10.185 0-12.396 12.54-27.94 21.513-36.45.547-.74 9.795-7.306 12.06-7.306.752 0 .96.135 1.23.4v1.542c0 2.95-8.29 14.14-8.013 15.55l.272.197c.275.07.547.136.823.136 6.85 0 11.578-12.396 11.578-16.486m133.716 39.603c0-.738-.41-1.004-.89-1.207-2.19 1.473-6.645 6.97-10.69 10.05-1.915 1.008-3.628 2.212-4.927 2.68-.756-1.672-1.166-3.15-1.166-4.42 0-.535.89-6.702 1.985-10.12 1.095-3.415 3.632-9.514 3.632-9.983 0-1.338-3.223-4.153-4.384-4.153-1.99 0-10.487 8.243-11.035 8.775-.065-.067-.134-.198-.134-.266s0-.068.068-.136l9.866-29.148c.203-1.807-3.496-3.348-3.975-3.348-2.193 0-1.166 4.154-1.166 4.825-.41.4-2.33 3.685-2.33 5.09 0 .604.48.536.48.806-2.466 1.07-4.04 9.044-5.892 14.135-2.123 6.635-6.85 18.697-7.876 19.365-.207 1.878 2.533 3.35 3.422 4.96h1.372c2.396-3.285 4.864-6.97 7.26-10.118-1.162 0 0-.266 0-1.005.206 0-.204.266.413.266.41 0 4.657-4.892 6.167-5.225v.603c-1.303 4.29-2.947 8.645-2.947 13.132 0 2.684 1.644 9.92 7.4 9.92 2.944 0 5-1.407 7.74-4.96.137-.2.41-.334.823-.537l.617-.198c1.576-1.005 3.013-3.35 4.178-5.563.687-1.274 1.373-2.68 1.986-4.22m-84.21-21.204c1.142.925 1.597 1 6.29-.024.588-.17 2.086-.89 2.61-1.044.61-.107-.004-.484.585-.66.744-.146.423.438 1.012.267 1.05-.31 6.232-3.714 5.858-5.63-.06-.196-3.897-3.62-5.274-3.218-.852.25-.6 1.783-.73 2.526-.816 1.774-4.67 3.672-6.086 4.645-1 .71-4.555 2.172-4.263 3.137m146.138-14.445c-1.3-2.41-3.7-2.28-5.343-2.478-3.905-.337-11.99-.4-12.744-.4-.75 0-.617.6-1.368.6-.755 0-.958-.6-1.713-.6-.755 0-12.537.333-13.292.333-.755 0-4.316.067-6.167.067-2.533 0-5.48-.67-6.098-.67-.75 0-1.713.87-1.713 1.607 0 3.216 7.194 4.69 8.152 4.69.685 0 6.58-.6 7.33-.6.756 0 1.438-.405 1.92.2-1.85 6.634-5.755 19.43-6.852 23.386-.272 1.203-6.028 16.95-6.028 20.703 0 1.94 2.67 3.684 4.59 3.684.752 0 2.194-.536 2.194-1.203-.345-2.882.07-7.774 1.165-10.792 1.708-6.027 3.356-11.59 4.862-16.617 2.534-8.51 5.136-17.487 6.098-19.496 2.672-.473 6.85-1.006 10.073-1.073 4.04-.203 13.154-.338 13.905-.338.138 0 .276-.064.48-.132.206-.202.478-.405.547-.873m22.743 34.91c.207-1.072-.203-3.284-.958-2.01-.548.938-6.508 7.235-10.345 10.253-1.437 1.072-4.18 2.41-4.794 2.41-.206.067-.344-.064-.413-.4l-.138-.402-.066-2.41c0-4.56 4.04-11.527 5.683-14.608.277-.54.618-.806 1.166-1.54.207-.203.207-.473.138-.942l-.137-.603c-.75-1.005-1.917-.735-2.944-1.27.202-1.006-.14-2.145-.415-2.75-.41-.4-3.9-2.544-4.587-2.544-2.538 0-3.496 1.405-4.523 2.072-.755.472-1.85 1.477-2.602 1.945.203.27-.07.74-.346 1.005-.203 0 .07-.266-.548-.266-.752 0-8.494 8.775-9.866 10.923-2.192 3.28-3.837 6.9-3.63 9.58 0 1.608 4.385 5.293 5.753 5.293 3.768 0 9.253-4.96 11.648-6.9.207 1.202.617 5.292 3.426 6.9.55.334 0-.27.55-.27.617 0 1.165 1.207 1.985 1.743 0-.202 0-.27.07-.337l.137-.132c.207.198.138.468.138.734l.548-.536c.272.27-.07.27.548.27.548 0 .41-.734 1.027-.734s.138.266.755.266c.613 0 .89-.874 1.368-.806 0-.266-.34-.735-.07-1.005.277 0 .208.27.826.27 1.437 0 7.328-6.968 8.014-7.977 1.303-1.807 2.26-3.415 2.602-5.225m-16.166-9.847c0 1.94-4.933 8.576-5.48 9.112-2.262 3.014-5.69 5.897-7.812 7.437-1.027.74-2.26 1.608-3.837 2.613h-1.165c-.07 0-.07 0-.138-.068-.065-.067-.138-.266-.138-.536 0-5.896 14.733-20.302 17.746-20.302.548.604.824 1.204.824 1.744m79.053-29.018c0-2.88-2.26-6.23-5.89-6.23-4.865 0-10.345 3.887-11.99 6.77-.276 0-.138-.27-.893-.27-.41 0-8.976 7.64-10.96 10.32-.89 1.14-1.715 2.946-2.332 4.558-3.012.532-3.767 4.888-5.96 6.63-.617 1.542-2.26 3.487-2.74 5.028-.34 1.072-.272 2.478-.75 3.284-.346.734-1.235 1.405-1.51 1.874-1.23 2.68-1.987 7.572-1.987 8.175 0 4.89 3.22 12.193 8.084 14.806 1.234.67 3.905 1.477 4.453 1.477h1.986c9.32 0 22.13-8.644 28.16-15.482 1.44-1.67 2.057-3.683 1.85-4.287-.07-.6-.207-.667-1.027-.6-3.566 3.55-7.743 6.298-10.28 7.704-1.23.873-2.055 1.473-2.534 1.743.276.266.345.4.07.67-.277 0 .137-.27-.618-.27-.617 0-10.755 6.703-17.267 6.703-6.093 0-7.327-6.432-7.327-10.185 0-12.396 12.537-27.94 21.513-36.45.548-.74 9.797-7.306 12.058-7.306.755 0 .958.135 1.234.4v1.542c0 2.95-8.29 14.14-8.018 15.55l.276.197c.272.07.548.136.82.136 6.853 0 11.58-12.396 11.58-16.486m70.346 46.448c-2.06 2.38-5.11 5.62-6.092 5.62-.617 0-.548-.27-.82-.27-.276.27.07.738.07 1.004-.484-.068-.756.806-1.373.806-.618 0-.134-.266-.756-.266-.612 0-.474.734-1.026.734-.613 0-.272 0-.548-.27l-.544.536c0-.266.065-.536-.138-.734l-.138.13c-.07.068-.07.136-.07.338-.82-.536-1.367-1.743-1.984-1.743-.548 0 0 .604-.548.27-2.81-1.608-3.22-5.698-3.427-6.9-2.4 1.94-7.88 6.9-11.647 6.9-1.23 0-4.893-2.973-5.625-4.744-.523.635-1.07 1.167-1.634 1.527l-.616.198c-.41.203-.682.338-.82.537-2.74 3.553-4.8 4.96-7.743 4.96-5.755 0-7.4-7.236-7.4-9.92 0-4.487 1.645-8.842 2.948-13.13v-.604c-1.506.333-5.757 5.225-6.167 5.225-.616 0-.202-.266-.41-.266 0 .74-1.164 1.005 0 1.005-2.395 3.148-4.863 6.833-7.262 10.117h-1.368c-.894-1.61-3.634-3.082-3.427-4.96 1.027-.668 5.753-12.73 7.88-19.365 1.847-5.09 3.423-13.064 5.89-14.136 0-.27-.478-.203-.478-.807 0-1.405 1.916-4.69 2.33-5.09 0-.67-1.03-4.825 1.166-4.825.476 0 4.178 1.54 3.97 3.348l-9.864 29.148c-.07.068-.07.068-.07.135s.07.198.14.265c.547-.532 9.044-8.775 11.03-8.775 1.164 0 4.384 2.815 4.384 4.153 0 .47-2.534 6.568-3.63 9.983-1.1 3.418-1.99 9.585-1.99 10.12 0 1.27.415 2.748 1.166 4.42 1.303-.468 3.017-1.672 4.933-2.68 3.428-2.613 7.152-6.962 9.542-9.122.317-.537.654-1.07 1.004-1.595 1.373-2.15 9.11-10.924 9.866-10.924.617 0 .345.266.548.266.272-.266.548-.735.34-1.005.756-.468 1.852-1.473 2.607-1.945 1.027-.667 1.986-2.073 4.52-2.073.685 0 4.18 2.143 4.59 2.544.277.604.618 1.743.41 2.748 1.028.536 2.193.266 2.948 1.27l.138.604c.07.47.07.74-.138.94-.548.736-.89 1.002-1.165 1.542-1.644 3.08-5.684 10.05-5.684 14.608l.065 2.41.14.4c.068.338.206.47.41.402.616 0 3.357-1.338 4.798-2.41 3.43-2.7 8.56-8.022 10-9.787 1.393-4.4 3.16-10.915 3.832-10.915 1.644 0 4.112 1.004 5 1.874-1.026 2.346-1.78 4.553-2.532 6.765-.07.068-.07.068-.07.135 0 .068.07.135.204.27 3.086-3.018 7.95-8.513 8.566-8.513 1.986 0 5.14 1.008 5.14 2.482l-1.096 8.31c.682-.473 2.054-2.28 2.533-2.28.617 0 .41.266.686.266 0-.735 6.302-10.32 9.18-10.32 1.714 0 3.565 1.81 3.565 2.816 0 .536-1.1 4.49-1.44 5.896-1.097 3.82-3.152 8.51-3.152 11.86 0 1.072 0 1.473.89 2.28 3.288-1.41 8.29-5.496 8.77-5.496.616 0-.41.47.206.47.478 0 .616-.672 1.095-.94.48-1.674 2.4-2.95 4.592-5.29.203.197.89.602.89 1.202 0 3.418-7.674 10.99-7.88 10.99-1.028.67-5.275 3.284-6.1 3.284-.612 0-1.09 0-1.846-.27 0-.266-2.123-.667-1.85-.937-3.15-2.342-3.63-3.684-3.63-7.17 0-.6 1.096-5.626 1.644-8.64-2.4 2.946-4.454 5.83-6.715 8.978-.41.4-1.986 5.56-4.045 5.56-1.644 0-4.518-1.808-4.518-3.484 0-.802 2.395-9.716 2.192-11.523-2.538 2.48-5.896 6.096-8.84 9.245-.754.74-4.66 7.374-6.714 7.374-.686 0-2.878-2.28-2.74-3.087.355-.695.67-1.382.956-2.065m-11.642-17.43c0 1.94-4.93 8.576-5.48 9.112-2.258 3.014-5.684 5.897-7.808 7.437-1.03.74-2.26 1.608-3.836 2.613H386.7c-.068 0-.068 0-.137-.068-.07-.067-.14-.266-.14-.536 0-5.896 14.735-20.302 17.747-20.302.548.604.82 1.204.82 1.744m117.557-29.018c0-2.88-2.262-6.23-5.89-6.23-4.87 0-10.35 3.887-11.994 6.77-.276 0-.138-.27-.89-.27-.41 0-8.975 7.64-10.96 10.32-.894 1.14-1.714 2.946-2.33 4.558-3.017.532-3.768 4.888-5.96 6.63-.618 1.542-2.262 3.487-2.74 5.028-.346 1.072-.277 2.478-.756 3.284-.34.734-1.234 1.405-1.506 1.874-1.234 2.68-1.985 7.572-1.985 8.175 0 4.89 3.22 12.193 8.083 14.806 1.23.67 3.906 1.477 4.454 1.477h1.985c9.318 0 22.13-8.644 28.16-15.482 1.437-1.67 2.054-3.683 1.85-4.287-.068-.6-.206-.667-1.027-.6-3.564 3.55-7.746 6.298-10.28 7.704-1.23.873-2.053 1.473-2.532 1.743.272.266.34.4.07.67-.277 0 .133-.27-.618-.27-.618 0-10.76 6.703-17.267 6.703-6.098 0-7.332-6.432-7.332-10.185 0-12.396 12.542-27.94 21.514-36.45.552-.74 9.796-7.306 12.062-7.306.75 0 .958.135 1.23.4v1.542c0 2.95-8.29 14.14-8.014 15.55l.272.197c.276.07.548.136.824.136 6.85 0 11.58-12.396 11.58-16.486m28.633 48.446c-1.92 1.008-3.633 2.212-4.932 2.68-.755-1.672-1.165-3.15-1.165-4.42 0-.535.89-6.702 1.985-10.12 1.096-3.415 3.634-9.514 3.634-9.983 0-1.338-3.224-4.153-4.385-4.153-1.99 0-10.482 8.243-11.03 8.775-.074-.067-.14-.198-.14-.266s9.936-29.284 9.936-29.284c.203-1.807-3.496-3.348-3.975-3.348-2.192 0-1.165 4.154-1.165 4.825-.41.4-2.33 3.685-2.33 5.09 0 .604.48.536.48.806-2.466 1.07-4.04 9.044-5.892 14.135-2.122 6.635-6.848 18.697-7.875 19.365-.207 1.878 2.533 3.35 3.422 4.96h1.373c2.4-3.285 4.863-6.97 7.263-10.118-1.17 0 0-.266 0-1.005.203 0-.207.266.41.266.41 0 4.656-4.892 6.167-5.225v.603c-1.304 4.29-2.948 8.645-2.948 13.132 0 2.684 1.644 9.92 7.397 9.92 2.947 0 5-1.407 7.74-4.96.14-.2.41-.334.825-.537l.617-.198c1.003-.64 1.95-1.823 2.807-3.17.025.657.564 2.727 1.297 3.77.962 1.477 4.454 3.418 8.566 1.878 2.193-1.807 6.508-5.694 9.04-9.045.07 1.608.416 2.946.688 4.355.55 2.613 4.385 5.762 6.785 5.762.617 0 .82 0 2.192-.47 2.943-.868 5.89-5.427 6.236-6.5.544-.602 1.092-.4 1.368-.67.14-.135 2.948-4.955 2.948-6.833 0-.604-.276-.536-.276-.802h-.958c-1.437 1.338-2.74 2.946-2.67 4.288-.208.198.34.4-.277.4-.755 0-1.096 0-1.575-.27-.89.875-5.89 5.965-8.084 6.703-.755-.337-1.165-2.882-1.165-3.35 0-5.63 3.358-12.532 5.89-17.555.208-.47.687-.94.687-1.473 0-.27-2.81-2.482-3.633-2.482-.613 0-1.438.27-1.645.874-.82 3.55-16.097 23.986-20.002 23.986-.618 0-.618-1.072-.618-1.608 0-7.504 8.908-21.51 8.908-21.644 0-1.138-2.948-2.814-4.316-2.814-.755 0-.48.27-.755.27-.208 1.27-.48 2.478-.48 3.482-.548 0-.07-.266-.686-.266-.34 0-.82 1.406-.755 2.276-.204.27-.614.135-.82.337-1.335 2.814-3.226 6.67-4.503 10.448m69.72-13.867c.068-.4 0-.734-.204-1.072-2.06-.536-5.412-.067-7.125-.067-.686 0-8.156.806-8.838.806-.346 0-1.097.135-1.714.202l-1.165.13 10.756-21.706c0-1.073-2.672-3.42-3.358-3.42-.958 0-6.44 11.054-8.972 17.96-.48 1.472-1.99 4.288-2.123 4.42-.617 1.273-1.1 2.147-1.442 2.746-.202.405-.478.74-.68 1.072-2.948 1.072-7.126 1.477-7.678 2.55 0 3.216 3.496 5.157 3.496 6.162 0 2.077-4.044 7.572-4.044 12.26 0 1.208.893 4.56 2.26 5.227l.485.202c.27.067.68.067 1.026-.203 1.437-2.88 4.315-9.514 4.522-12.127-1.1-1.608 1.507-5.964 2.944-8.306.617-1.01 2.74-1.275 3.63-1.608 3.288-1.072 9.045-2.212 13.36-2.95 1.368-.2 4.454-.938 4.66-1.676l.204-.604" id="Fill-378" fill="#51351F"/><path d="M455.782 543.462c-.197.026-.833.377-1.79.97-1.32.29-3.09.272-5.334.033-54.62-8.578-109.63-7.577-163.846 2.597-4.164.76-8.32 1.578-12.473 2.444-5.215.805-33.262 8.123-34.706 9.255-.095.026-.386.053-.685.016-.383.053-4.37 1.154-4.463 1.185-.13.042-.253.077-.38.112-.19.114-.182.167-.173.226.004.06.118.14.31.143-.277.193-.74.388-1.313.56-.2-.11-.505-.193-.815-.33-1.647.496-3.294 1-4.937 1.507-.806-.154-1.995-.303-3.602-.49-.246-.443-.784-.795-1.498-.97-.794-.85-1.29-1.673-1.377-2.344-.09-.723.108-1.545.503-2.427.44-.43 1.246-1.094 2.23-2.043 2.705-.874 5.412-1.73 8.125-2.56 15.35-4.403 30.785-8.073 46.276-10.997 2.96-.71 5.925-1.392 8.893-2.044.292-.056 1.16-.385 2.502-.913.288.007.586.067.978.115 52.416-9.404 105.542-10.31 158.317-2.362 1.79.92 3.58 1.78 5.478 2.564.79.826 1.653 1.96 2.556 3.57.25.385.782.948 1.285 1.673-.022.17-.04.344-.063.512z" id="Fill-379" fill="#DB322A"/></g></g></g></svg>